<svg xmlns="http://www.w3.org/2000/svg" viewBox="0 0 1920 820" preserveAspectRatio="none">
  <defs>
    <pattern id="wood" width="180" height="54" patternUnits="userSpaceOnUse">
      <rect width="180" height="54" fill="#f4dfbd"/>
      <path d="M0 53H180M0 27H180M90 0V27M28 27V54M145 27V54" stroke="#e6cba2" stroke-width="2" opacity=".45"/>
    </pattern>
    <pattern id="speckle" width="32" height="32" patternUnits="userSpaceOnUse">
      <rect width="32" height="32" fill="#f3eadb"/>
      <circle cx="6" cy="9" r="1.4" fill="#d9c9b8" opacity=".5"/>
      <circle cx="24" cy="20" r="1.1" fill="#d8c4ae" opacity=".42"/>
    </pattern>
    <linearGradient id="glass" x1="0" y1="0" x2="0" y2="1">
      <stop offset="0" stop-color="#c7e5f5"/>
      <stop offset="1" stop-color="#a9cee3"/>
    </linearGradient>
    <filter id="soft" x="-20%" y="-20%" width="140%" height="140%">
      <feDropShadow dx="0" dy="5" stdDeviation="5" flood-color="#67717a" flood-opacity=".12"/>
    </filter>
  </defs>

  <!-- Four office areas are painted by CSS so time-of-day can recolor them. -->

  <!-- Upper office wall and skyline window -->
  <rect x="650" y="18" width="660" height="88" rx="4" fill="none" stroke="#6f8799" stroke-width="5"/>
  <path d="M650 105H1310" stroke="#6f8799" stroke-width="5"/>
  <path d="M815 18V106M980 18V106M1145 18V106" stroke="#8095a5" stroke-width="4" opacity=".75"/>
  <g fill="#87a8bd" opacity=".65">
    <rect x="700" y="67" width="54" height="39"/><rect x="778" y="53" width="42" height="53"/>
    <rect x="865" y="38" width="64" height="68"/><rect x="1016" y="61" width="46" height="45"/>
    <rect x="1102" y="45" width="68" height="61"/><rect x="1210" y="57" width="48" height="49"/>
  </g>
  <g fill="#fff" opacity=".62">
    <ellipse cx="755" cy="43" rx="32" ry="12"/><ellipse cx="778" cy="39" rx="20" ry="14"/>
    <ellipse cx="1198" cy="35" rx="28" ry="11"/><ellipse cx="1219" cy="31" rx="17" ry="12"/>
  </g>

  <!-- Second band left divider -->
  <g transform="translate(0 226)">
    <rect width="222" height="160" rx="0 18 18 0" fill="#7895ad"/>
    <rect x="24" y="32" width="54" height="42" rx="4" fill="#f5d978"/>
    <rect x="98" y="50" width="60" height="42" rx="4" fill="#f1cf73"/>
    <rect x="22" y="116" width="110" height="38" rx="7" fill="#e8e5df"/>
    <g transform="translate(156 20)">
      <path d="M28 74c-8-24-3-44 18-59M26 74C14 52 11 34 19 17M28 74c12-18 27-29 45-33" stroke="#608b55" stroke-width="6" fill="none"/>
      <g fill="#7eaa6a"><circle cx="17" cy="17" r="11"/><circle cx="46" cy="14" r="12"/><circle cx="73" cy="41" r="11"/><circle cx="15" cy="46" r="10"/></g>
      <rect x="10" y="73" width="40" height="30" rx="7" fill="#b47b54"/>
    </g>
  </g>

  <!-- Second band coffee bar -->
  <g transform="translate(1608 248)" filter="url(#soft)">
    <rect x="0" y="78" width="284" height="96" rx="10" fill="#d2a577"/>
    <rect x="16" y="92" width="76" height="66" rx="6" fill="#e4bd93"/>
    <rect x="106" y="92" width="76" height="66" rx="6" fill="#e4bd93"/>
    <rect x="28" y="0" width="92" height="76" rx="10" fill="#48525c"/>
    <rect x="44" y="14" width="60" height="22" rx="5" fill="#717c85"/>
    <rect x="52" y="44" width="42" height="24" rx="8" fill="#2f363c"/>
    <circle cx="214" cy="40" r="20" fill="#7fa86a"/><rect x="203" y="58" width="23" height="18" rx="4" fill="#e2c299"/>
    <circle cx="256" cy="57" r="14" fill="#91b476"/><rect x="248" y="69" width="18" height="14" rx="4" fill="#e2c299"/>
  </g>

  <!-- Third band lounge -->
  <g transform="translate(22 447)" filter="url(#soft)">
    <path d="M32 126V75c0-34 24-58 63-58s63 24 63 58v51Z" fill="#ef8064"/>
    <rect x="50" y="63" width="90" height="47" rx="16" fill="#f58e70"/>
    <rect x="78" y="74" width="38" height="26" rx="8" fill="#fff0cf"/>
    <path d="M56 124l-9 42M134 124l9 42" stroke="#b36f50" stroke-width="8" stroke-linecap="round"/>
    <ellipse cx="205" cy="132" rx="52" ry="13" fill="#c8a06f"/>
    <rect x="201" y="132" width="8" height="35" fill="#a87e54"/>
    <circle cx="204" cy="101" r="20" fill="#76a66b"/><rect x="193" y="117" width="22" height="18" rx="4" fill="#d4b184"/>
    <g transform="translate(0 -6)">
      <path d="M22 68C4 38 4 17 17 0M28 71C31 38 46 18 63 6M20 70C-2 56-13 41-17 23" stroke="#5f8c55" stroke-width="7" fill="none"/>
      <g fill="#7baa68"><ellipse cx="17" cy="4" rx="18" ry="11" transform="rotate(-30 17 4)"/><ellipse cx="63" cy="9" rx="18" ry="11" transform="rotate(26 63 9)"/><ellipse cx="-13" cy="24" rx="16" ry="10" transform="rotate(25 -13 24)"/></g>
      <rect x="2" y="69" width="46" height="38" rx="8" fill="#f3efe5"/>
    </g>
  </g>

  <!-- Third band meeting room -->
  <g transform="translate(1608 426)">
    <rect x="0" y="0" width="292" height="176" rx="8" fill="#c7e2ec" opacity=".62" stroke="#89aeba" stroke-width="5"/>
    <path d="M94 0V176" stroke="#89aeba" stroke-width="4" opacity=".55"/>
    <rect x="126" y="104" width="116" height="14" rx="7" fill="#a47c57"/>
    <rect x="142" y="118" width="10" height="44" fill="#8d6b4d"/><rect x="216" y="118" width="10" height="44" fill="#8d6b4d"/>
    <path d="M190 0v48" stroke="#ae7958" stroke-width="6"/><path d="M164 50h52l-12 28h-28Z" fill="#ef8662"/>
    <g transform="translate(244 88)">
      <path d="M18 58C7 35 8 17 20 0M22 59c10-22 25-32 42-37" stroke="#608b55" stroke-width="6" fill="none"/>
      <g fill="#7faa68"><circle cx="19" cy="4" r="12"/><circle cx="64" cy="23" r="13"/><circle cx="9" cy="31" r="11"/></g>
      <rect x="4" y="56" width="42" height="34" rx="7" fill="#f3efe5"/>
    </g>
  </g>

  <!-- Bottom band shelves -->
  <g transform="translate(0 650)" filter="url(#soft)">
    <rect x="0" y="60" width="204" height="106" rx="0 12 12 0" fill="#d3b088"/>
    <rect x="18" y="76" width="72" height="70" rx="6" fill="#e3c49e"/>
    <rect x="103" y="76" width="72" height="70" rx="6" fill="#e3c49e"/>
    <g fill="#5d7180">
      <rect x="22" y="26" width="15" height="34" rx="3"/><rect x="41" y="18" width="18" height="42" rx="3"/>
      <rect x="64" y="31" width="16" height="29" rx="3"/><rect x="85" y="13" width="15" height="47" rx="3"/>
    </g>
    <path d="M144 56C132 36 134 18 148 4M149 58c12-17 26-24 41-23" stroke="#628d58" stroke-width="6" fill="none"/>
    <g fill="#79a968"><circle cx="148" cy="6" r="11"/><circle cx="191" cy="36" r="11"/><circle cx="132" cy="31" r="10"/></g>
  </g>

</svg>